<?xml version="1.0" encoding="UTF-8"?>
<svg id="Layer_1" data-name="Layer 1" xmlns="http://www.w3.org/2000/svg" width="9.26in" height="9.26in" viewBox="0 0 667 667">
  <path d="M0,667V0h667v667H0ZM154.44,240.41c42.52-62.09,110.35-101.71,185.51-107.54,2.32-.18,3.4.1,5.12-1.54-78.78-6.05-159.93,22.08-205.79,90.04-13.45,19.93-23.54,40.76-29.92,64.14-12.69,46.51-7.64,97.08,15.6,138.5-20.46-63.93-8.43-131.04,29.47-183.6ZM447.4,295.7c-15.93,13.83-33.82,30.75-41.92,49.62-3.17,7.38-2.77,17.04,3.99,22.32,8.18,6.38,29.08-8.28,36.18-14.04,20.29-16.46,38.03-35.09,54.13-55.75,12.68-16.28,23.36-38.93,21.63-59.97-.62-7.56-2.8-16.32-9.03-21.1-15.09-11.57-49.35,4.67-64.41,13.14-48.9,27.51-102.76,77.58-129.91,127.16l-36.38,28.31c16.35-30.67,32.39-58.93,45.91-89.72,2.71-6.16,5.3-12.76,4.83-19.39-.27-3.72-6.14-6.98-8.91-8.69-4.68-2.89-9.55-1.81-13.23,1.8l-45.4,44.47c-13.35,13.08-26.67,25.09-41.09,36.85-6.89,5.62-13.81,10.19-21.43,14.86-3.19,1.95-8.15,2.15-11.52.34-2.53-1.36-5.08-5.19-5.81-9.01-3.79-19.63,16.64-45.63,29.37-59.59,18.89-20.71,40.52-37.64,64.13-52.66,10.02-6.37,18.99-12.48,30.33-16.63-3.97,7.57-18.98,16.27-13.59,25.57,16.42-9.82,31.64-20.11,46.21-32,9.92-8.1,10.89-14.26,9.28-26.36-1.34-10.15-8.83-17.46-18.82-19.44-19.2-3.8-43.71,5.05-61.06,14.08-35.93,18.7-66.92,45.53-89.72,79.03-20.32,29.86-39.12,79.37-17.78,112.38,6.95,10.76,18.68,15.87,31.15,12.06,7.17-2.2,14.15-5.91,20.26-10.71,18.12-14.26,35.37-28.81,52.22-44.58,2.42-2.27,4.23-4.61,7.07-6.71-9.61,25.51-21.66,49.12-34.71,72.86-2.87,5.23-6.71,9.22-11.16,13.02-17.35,14.79-39.96,34.16-46.16,56.71-2.58,9.4-2.67,19.95,3.15,27.89,13.1,3.21,39.41-23.66,46.23-32.49l29.22-37.78,44.28-42.08c-2.21,15.93-3.16,30.35,4.59,43.87,13.34,23.27,39.73,35.18,66.3,31.39,47.27-6.74,95.93-49.61,125.92-84.67l-.4-16.41c-25.52,28.83-74.04,67.76-113.31,69.87-17.81.95-31.51-11.05-32.6-28.93-.7-11.58,1.93-22.83,6.29-34.11,13.83-35.84,35.43-67.88,62.85-94.78,11.85-11.62,24.25-21.34,38.65-29.12,5.93-3.2,21.98-10.17,26.64-3.8,8.59,11.76-28.06,49.08-37.1,57.48-1.46-2-3.56-4.33-5.37-4.57ZM443.29,514.99c37.44-16.99,67.81-43.09,89.04-77.6,8.73-14.5,15.8-28.67,21.3-44.8,17.25-50.65,13.44-107.3-13.74-154.01,10.3,31.83,14.08,62.8,9.13,95.46-5.01,33.02-16.87,63.65-36.15,90.57-42.61,64.01-110.43,103.23-187.64,110.43,40.4,4.13,80.79-4.14,118.06-20.04Z" fill="#fff"/>
  <path d="M447.4,295.7c1.81.24,3.9,2.57,5.37,4.57,9.04-8.4,45.69-45.73,37.1-57.48-4.65-6.36-20.7.6-26.64,3.8-14.41,7.78-26.81,17.5-38.65,29.12-27.42,26.9-49.02,58.94-62.85,94.78-4.36,11.29-6.99,22.53-6.29,34.11,1.09,17.88,14.79,29.89,32.6,28.93,39.27-2.1,87.79-41.03,113.31-69.87l.4,16.41c-29.99,35.06-78.66,77.93-125.92,84.67-26.57,3.79-52.96-8.13-66.3-31.39-7.75-13.52-6.8-27.94-4.59-43.87l-44.28,42.08-29.22,37.78c-6.83,8.83-33.13,35.7-46.23,32.49-5.82-7.94-5.73-18.49-3.15-27.89,6.19-22.55,28.81-41.92,46.16-56.71,4.45-3.8,8.29-7.79,11.16-13.02,13.04-23.75,25.09-47.35,34.71-72.86-2.84,2.1-4.65,4.44-7.07,6.71-16.86,15.77-34.1,30.32-52.22,44.58-6.1,4.8-13.09,8.52-20.26,10.71-12.47,3.82-24.2-1.3-31.15-12.06-21.34-33.01-2.54-82.52,17.78-112.38,22.8-33.51,53.8-60.34,89.72-79.03,17.35-9.03,41.86-17.89,61.06-14.08,9.99,1.98,17.48,9.28,18.82,19.44,1.6,12.1.64,18.26-9.28,26.36-14.58,11.9-29.79,22.18-46.21,32-5.4-9.3,9.62-18.01,13.59-25.57-11.34,4.15-20.31,10.26-30.33,16.63-23.62,15.02-45.24,31.95-64.13,52.66-12.73,13.95-33.16,39.96-29.37,59.59.74,3.82,3.29,7.65,5.81,9.01,3.37,1.81,8.33,1.61,11.52-.34,7.62-4.67,14.54-9.24,21.43-14.86,14.42-11.77,27.74-23.78,41.09-36.85l45.4-44.47c3.68-3.61,8.55-4.7,13.23-1.8,2.76,1.71,8.64,4.97,8.91,8.69.47,6.63-2.12,13.23-4.83,19.39-13.53,30.79-29.56,59.05-45.91,89.72l36.38-28.31c27.15-49.58,81.01-99.65,129.91-127.16,15.05-8.47,49.32-24.72,64.41-13.14,6.23,4.78,8.41,13.54,9.03,21.1,1.73,21.04-8.95,43.69-21.63,59.97-16.1,20.66-33.83,39.29-54.13,55.75-7.1,5.76-28,20.42-36.18,14.04-6.76-5.27-7.15-14.94-3.99-22.32,8.1-18.88,26-35.79,41.92-49.62Z"/>
  <path d="M443.29,514.99c-37.27,15.9-77.66,24.17-118.06,20.04,77.21-7.2,145.03-46.42,187.64-110.43,19.28-26.92,31.14-57.55,36.15-90.57,4.96-32.66,1.17-63.63-9.13-95.46,27.18,46.72,31,103.37,13.74,154.01-5.5,16.14-12.57,30.31-21.3,44.8-21.24,34.51-51.61,60.61-89.04,77.6Z"/>
  <path d="M154.44,240.41c-37.9,52.57-49.93,119.68-29.47,183.6-23.24-41.42-28.3-92-15.6-138.5,6.38-23.37,16.47-44.2,29.92-64.14,45.85-67.96,127.01-96.1,205.79-90.04-1.72,1.64-2.8,1.36-5.12,1.54-75.16,5.82-142.99,45.45-185.51,107.54Z"/>
</svg>