<?xml version="1.0" encoding="UTF-8"?>
<svg id="Layer_2" data-name="Layer 2" xmlns="http://www.w3.org/2000/svg" viewBox="0 0 419.5 152.6">
  <defs>
    <style>
      .cls-1 {
        fill: #008cd3;
      }

      .cls-2 {
        fill: #e2e2e2;
      }

      .cls-3 {
        fill: #03a8f3;
      }

      .cls-4 {
        fill: #efe500;
        stroke: #000;
        stroke-miterlimit: 10;
      }

      .cls-5 {
        fill: #012586;
      }
    </style>
  </defs>
  <g id="Layer_1-2" data-name="Layer 1">
    <g>
      <g>
        <path class="cls-5" d="M130.33,27.08h-12.07c-3.46,0-6.39,5.64-7.86,8.14-1.2-.81-2.11-2.01-3.2-2.91-2.4-1.98-6.49-4.8-9.45-6.21-6.19-2.94-20.89-4.93-27.8-3.98-7.94,1.09-17.94,4.83-24.56,9.48-.65.46-2.5,1.51-2.58,1.64-.29.42.09,1.27-1.21,1.12l.29.56c-.48-.02-.81.14-1.18.43-1.46,1.13-4.37,4.21-5.67,5.68-2.08,2.35-4.98,6.52-6.65,9.64-17.36,32.5,2.72,73.94,39.56,79.67,5.33.83,10.15-.26,15.54,1.04,4.97,1.2,8.03,1.47,13.04-.06,6.16-1.9,10.84-6.14,14.31-11.43,2.01,6.4,7.82,11.15,14.55,11.64l-6.9,5.48c-2.55-.93-5.06-2.06-7.79-2.28-1.42-.11-3.52-.11-4.94,0-7.58.6-14.8,7.25-16.76,14.52-8.77,1-17.58,1.23-26.27-.29l-3.75-6.87c-5.84-6.29-13.2-9-21.74-6.94-1.78.43-2.43,1.69-4.66.61-1.59-.77-5.9-4.81-7.41-6.26-1.87-1.8-3.34-3.96-4.93-4.94l-4.98-7-.07-.66c2.68-6.01,2.64-13.17-.69-18.93-2.47-4.28-6.79-7.22-10.96-9.7.08-2.76-.77-5.71-.93-8.38-.35-5.92.43-11.92,1.49-17.73.15-.27.38-.4.64-.54,9.43-4.84,14.46-12.05,12.98-23.32-.21-1.61-1.65-3.6-.91-5.32.57-1.31,2.82-3.96,3.85-5.17,2.76-3.24,6.94-7.17,10.32-9.76.67-.52,3.4-2.56,3.94-2.76,1.37-.5,2.91.66,4.22.99,11.45,2.93,19.6-2.1,24.88-12.05.19-.36-.04-.69-.01-.71.36-.22,7.25-.86,8.27-.9,4.83-.23,9.93.02,14.7.75.61.28,1.89,3.29,2.51,4.18,5.66,8.29,14.06,11.56,23.81,8.74,1.66-.48,2.36-1.6,4.4-.87,1.25.45,5.64,3.79,6.83,4.81s3.36,3.14,4.35,4.37c.53.66,1.23,1.64,1.46,2.47Z"/>
        <path d="M151.4,92.71c1.04,1.42,1.19,3.03,2.5,4.18-2.75.39-5.6.82-8.31.33-.25.81-1.24.07-1,1.42l3.08.53,7.04-.15c1.43.91,1.64,1.83,2.4,3.18.24.43,1.24.75.87,1.96l-9.85.62c.15.79-.5,1.43-.56,2.22s.25,1.74.18,2.82c-.33,5.03-2.72,9.58-6.07,12.82-6.65,6.44-19.91,10.06-26.65.03-2.72-4.05-2.73-8.81-1.51-13.42.09-.34,1.32-2.18,1.33-2.32.01-.18.04-1.9,0-2-.28-.77-2.2-.14-2.96-.5-.98.2-.49,5.51-.64,6.46-.38,2.39-1.69,5.35-2.78,7.58-.5,1.03-.49.82-1.32,1.67-.32.33-.15.72-.23.81-4.06,4.81-6.53,5.97-12.46,7.95-.24.08-.23.52-.43.56-2.21.44-6.08.21-8.34,0-.21-.02-.16-.47-.33-.52-2.31-.79-1.69-.6-3.53-1.79-.54-.35-1.95-.86-2.55-1.49-3.81-3.99-3.98-11.18-2.4-16.21.02-.06.4-.1.46-.28.15-.46,1.18-3.24,1.17-3.42-.09-1.78-1.35-.95-2.46-1-.85-.04-1.62-.29-2.32-.31-.95-.03-2.15.5-3.35,0-.23-.22.57-1.19.76-1.42.48-.59,2.84-3.03,3.39-3.32,2.42-1.28,9.44.04,10.55-1.37.33-.41-.51-1.13-.58-1.12-.25,0-.68.27-1.16.26-.61,0-5.74.16-5.68-.45,2.39-3.03,4.85-6.12,8.9-6.8,19.07.25,38.21.53,57.29.27,1.77-.02,2.65-.61,4.63,0,.26.08,2.04.91,2.18,1.02.35.27.43.79.71,1.18ZM137.14,105.22c-1.51-1.6-2.03-2.04-4.32-2.22-4.58-.35-7.86,1.74-9.77,5.82l-.56-.28c.47,1.1-.52,1.51-.56,1.65-.09.32-.09,3.62,0,4.02.29,1.55,1.99,3.26,2.96,4.43,3.99,2.26,8.86.73,11.75-2.63,1.43-1.66,1.34-2.45,1.89-4.32.07-.24.54-.15.59-.65.03-.3-.95-4.7-1.12-5.03-.23-.44-.57-.5-.83-.77ZM97.55,104.08c-.17-.11-.2-.61-.56-.73-2.05-.71-3.47.37-5.06.98-.27.1-.64-.13-.8-.05-1.26.62-4.35,3.9-5.13,5.13-.11.17.15.62-.04.87-.15.22-.61.21-.69.45-.09.26.23,4.9.32,5.45.3,1.8,2.7,3.72,4.44,4.01,3.33.55,6.03-.4,8.65-2.33,1.14-.84,1.3-2.39,2.37-3.11.26-.18.72-.06.77-.1.04-.03-.29-.56-.24-.94.38-2.64,1-4.42.1-6.92-.99.05-1.57-1.95-2.47-2.44-.28-.15-1.07.12-1.67-.26ZM116.95,113.19h-.86c-.5,2.48-.16,6.12,1.1,8.35,4.99,8.86,18.38,6.51,23.62-.73.85-1.17,2.69-4.08,2.64-5.45-.64-1.41-.78-.34-1.1-.14-1.77,1.13-1.67,1.44-2.87,2.59-.56.53-6.87,3.58-7.6,3.8-3.2.94-6.23.25-9.15-1.18l-3.59-2.58c-.43-.07-.52-.04-.41.41.19.84.78,1.79,1.44,2.35.07.65-.09.45-.49.2-1.95-1.26-2.15-5.52-2.72-7.62ZM79.71,114.65c-.81-.76-.88,2.19-.88,2.46.01,3.32.74,4.48,2.51,6.98.74,1.04.66.44,1.01.87.23.28-.02.69,0,.71.25.26,1.75-.11,1.74,1.17l.85-.27-.3.58c.91-.44,1.25.56,1.37.58,1.56.25,7.43.24,8.9-.06.92-.19,3.06-2.26,4.58-1.98l-.29-.58,1.16.29c-.09-1.54.38-.89.99-1.48.83-.8,3.52-3.66,3.97-4.49.42-.76.37-2.4,1.14-3.2-1.48-1.6-2.6,1.54-3.32,2.2-.47.44-3.61,1.44-4.44,1.86-1.11.57-2.48,1.83-3.8,2.13-1.15.26-5.28.38-6.28.03-.39-.13-.38-.67-.54-.76-.31-.19-.84,0-1.17-.13-.73-.3-1.1-1.31-2.26-1.11l.29-.87c-1.43.63-1.76-1.19-3.2-.87l.44,2.03c-.7-.45-.53-1.25-.75-1.81-.38-.92-.97-2.1-1.49-3.23-.16-.34-.24-.7-.23-1.07Z"/>
        <path d="M240.89,79.45c.45.49-.5.57-.67.93-.58,1.19-3.97,8.82-4.34,9.2-.13.14-.65-.06-.84.22-.29.42-.82,2.07-1.16,2.57-.44.65-1.14.09-.56,1.33l-.54-.26c-.49,1.6-1.27,2.66-2.67,3.59l-70.81.14c-1.35-.2-.89-.57-1.17-1.06-.04-.07-.32-.08-.42-.31-1.32-3.02-1.97-7.54-3.22-10.68-.38-.95-1-2.47-2.02-2.6l-47.46-.02c.29-1.15,1.2-3.21,2.46-3.36h131.82c.31.02,1.47.19,1.59.31ZM226.05,91.95h-32.29v.29h32.29v-.29Z"/>
        <path class="cls-1" d="M78.96,32.44c-.11.06-.12.39-.33.44-2.04.5-5.88-.16-7.34.75-.89.55-3.71,4.94-3.48,5.76.43,1.51,6.53-.08,5.58,2.13-1.11,2.6-7.91,1.28-9.52,4.18-9.67,15.72-17.92,32.36-27.57,48.07-.44.72-2.28,4.23-3.14,3.86-1.08-1.2-1.84-2.67-2.67-4.04-1.23-2.04-4.68-7.64-5.25-9.59-.84-2.85.52-4.45,1.76-6.81,7.95-15.13,17.81-29.72,25.82-44.88,1.1-1.22,2.05-2.38,3.79-2.61,6.62.33,13.8-.52,20.35-.04,1.41.1,2.87.12,3.21,1.77-.16.7-.72.71-1.21.99Z"/>
        <path class="cls-1" d="M66.83,45.18l35.73-.08.88.29-.24,2.42c-4.48,7.03-7.87,15.31-12.38,22.24-1.02,1.57-2.14,3.25-4.25,3.31h-34.65c-1.38-.06-1.51-1.22-1.16-2.36.52-1.68,4.22-7.94,5.34-9.78,1.09-1.78,1.89-3.3,4.26-3.59,5.71-.7,12.66.64,18.5-.12,2.1-.49,3.85-3.59,4.79-5.4.76-1.46,2.79-5.09-.56-4.65-4.29.56-3.84,7.15-8.74,7.57-4.15.36-8.85-.25-13.05-.06l-.57-.62c-.41-.89,1.75-4.67,2.36-5.64.95-1.48,2-2.95,3.75-3.52ZM76.15,60.3c-1.25.12-2.63,1.2-3.37,2.18-1.21,1.61-6.47,9.72-1.01,8.01,2.35-.74,4.46-4.57,5.47-6.74.62-1.33,1.23-3.66-1.1-3.45Z"/>
        <path class="cls-1" d="M227.41,56.36c.5-.47,4.01-6.25,4.13-6.8.43-2.05-1.07-2.42-2.73-1.84-3.4,1.2-3.74,6.55-7.03,7.22-2.32.47-10.38.27-13.04.08-.54-.04-1.06-.09-1.55-.34-.15-.57-.06-1.15.1-1.71.22-.76,2.56-4.86,3.11-5.62.9-1.24,2.3-2.22,3.87-2.24,10.99.84,23.56-1.08,34.36,0,1.36.14,1.92.57,1.42,2.04l-13.27,23.97c-1.12,1.54-2.28,2.1-4.16,2.24-11.05.86-23.19-.69-34.36,0-.94.06-1.44-.94-1.17-1.76,1.97-3.39,3.57-7.39,5.65-10.67,1.18-1.87,2.17-3.08,4.55-3.31,5.47-.51,12.13.68,17.47.02.8-.1,2.07-.72,2.66-1.27ZM224.24,60.89c-.96-1.66-4,.51-4.87,1.55-.7.83-3.41,5.33-3.66,6.24-.72,2.65,2.46,2.15,4.04,1.12,1.07-.7,4.07-5.66,4.42-6.92.14-.5.31-1.57.07-1.99Z"/>
        <path class="cls-1" d="M129.09,45.18l35.44-.08c.79,0,1.35.48,1.3,1.3-.04.68-3.22,6.29-3.83,6.96-.59.66-1.63,1.42-2.5,1.58-1.97-.21-13.18.56-14.06-.06-1.91-1.34,4.05-6.83.73-7.44-2.66-.49-4.26,2.26-5.42,4.17-2.49,4.11-7.55,12.52-9.18,16.71-.93,2.39.72,3.2,2.8,2.22,4.59-2.16,5.12-12.38,10.93-12.93,3.87-.36,8.29.28,12.22.02,1.53.29,1.02,1.83.59,2.9-.6,1.48-5.53,10.51-6.39,11.36-.62.62-1.42.92-2.18,1.31l-35.66.15c-.83.08-1.36-.78-1.24-1.55s2.54-4.88,3.1-5.94c3.32-6.22,7.12-12.2,10.28-18.52.72-1.04,1.85-1.84,3.07-2.16Z"/>
        <path class="cls-1" d="M117.75,29.76c2.04-.37,10.9-.37,13.04-.08,3.38.45-1.43,5.95-1.97,7.66-1.23,3.9,3.26,1.75,2.95,3.52-1.85,2.11-5.25.82-6.92,3.57l-23.76,42.57-9.19-12.63-.23-1.11,22.99-41.33c.68-.95,1.91-1.95,3.07-2.16Z"/>
        <path d="M298.45,98.98c.98,1.92-.88,3.6-1.38,5.35-1.58,0-3.3.37-4.82.44-18.9.85-38.72-.33-57.62-.32-21.51.01-43.39.58-64.87.32-1.97-.02-7.58.32-8.91-.72-1.28-1-1.69-3.65-1.14-5.12l138.73.05Z"/>
        <path d="M94.84,82.35c-1.81-.68-4.15,0-5.96.03-3.13.04-4.39-.92-7.52,1.18-1.54,1.03-4.21,6.06-5.46,7.93-.79,1.18-1.64,2.58-2.59,4.02l-2.52,1.91c-7.83.01-15.68.19-23.52.07-1.08-.02-2.24-.3-3.49-.32-1.09-.01-3.89.64-4.8.14-.09-.05-1.42-1.39-1.44-1.5-.4-1.47.4-2.02.97-3.01,2-3.48,4.11-7.06,6.31-10.6.62-1,.74-2.23,1.96-3.05l45.63-.02c1-.37,2.59,3.05,2.46,3.21Z"/>
        <path class="cls-1" d="M187.39,54.97c-1.02-2.26,2.93-5.21,1.73-7.05-.93-1.42-4.11.44-4.83,1.54-4.56,6.22-7.59,15.67-12.12,21.63-1.05,1.37-2.12,2.08-3.86,2.25-2.9.27-9.07.29-11.96,0-2.96-.29-.85-2.98.01-4.68,3.17-6.2,7.05-13.07,10.58-19.1,1.35-2.31,2.1-4.19,5.13-4.47l35.36.16c1.4.68-.47,3.47-1.01,4.52-1.59,3.06-2.61,5.21-6.4,5.53-2.92.25-7.83.2-10.79,0-.63-.04-1.24-.2-1.85-.33Z"/>
        <path class="cls-1" d="M123.83,16.71c3.3,2.57,6.19,5.8,8.96,8.93,37.83.63,75.87.11,113.79.26,9.48,1.39,15.44,10.74,11.69,19.87l-14.81,27.23c-.55.19-1.06.12-1.4-.38,1.26-1.76,2.06-3.76,3.08-5.64,3.44-6.38,7.79-13.11,10.93-19.62,4.33-8.99,1.17-17.34-8.61-20-19.67,0-39.49.06-59.07.03-16.29-.02-33.63.75-49.78,0-2.6-.12-4.89-.13-6.98-1.76-2.87-2.23-5.48-5.95-8.73-8.42-2.03-1.55-4.02-2.71-6.24-3.98l-.39-.06c-.95.59-2.3,1.26-3.35,1.6-9.8,3.15-18.7-1.29-23.3-9.44-.67-1.19-.9-3.11-2.35-3.41-4.24-.29-8.74-1.25-12.97-1.03-3.28.18-7.27.73-10.46,1.33-.27.05-.68-.24-1-.15-.13.09-.45,1.7-.63,2.09-4.79,9.97-15.24,13.94-25.63,9.8-.29-.11-.6-.99-1.41-.68-1.74.84-3,2.2-4.5,3.33-4.26,3.19-8.74,6.89-12.07,11-1.59,1.95-2.98,4.06-4.08,6.34,4.96,10.98-.66,22.56-11.56,26.67-.17.18-.79,2.33-.87,2.77-1.45,7.36-1.27,14.11-.39,21.49.17,1.46.09,3.09.37,4.58,1.74,1.11,3.6,1.94,5.28,3.15,8.13,5.87,9.39,14.23,6.57,23.58-.08.26-1.08.48-.47,1.9.03.08.39.11.49.29,3.32,5.78,11.73,14.89,17.39,18.32.34.21.34.56.77.71,1.19.43,2.83.29,4.02-.08.22-.07.19-.45.65-.58,4.23-1.15,6.64-1.28,10.94-.14,3.94,1.05,8.18,3.98,10.43,7.39.77,1.16,2.37,5.21,2.92,5.74,1.36,1.32,6.12,1.12,8.02,1.29,1.15.11,2.32.53,3.48.59,5.52.3,11.02-.44,16.45-1.17-.03.23.07.56,0,.73-.28.7-4.98.65-5.94.75-.75.08-1.4.49-2.34.57-6.63.54-13.16-.83-19.75-1.16l-4.71-8.45c-4.63-5.06-11.58-7.16-18.34-5.55-1.6.38-2.69,1.37-4.61,1.16-2.34-.24-4.77-2.85-6.51-4.34-4.45-3.8-8.52-7.88-11.99-12.67-.54-.75-2.05-2.82-2.32-3.53-.48-1.28,1.28-4.1,1.63-5.58,1.62-6.98-.89-13.73-6.3-18.23-2.01-1.68-4.44-2.7-6.55-4.21-.41-2.19-.81-4.3-1.01-6.55-.57-6.28-.31-12.57.8-18.69.21-1.16.18-2.72.55-3.81.37-1.09,2.92-1.91,4.08-2.61,8.42-5.11,11.19-12.38,8.74-21.93-.31-1.21-1.5-1.98-.5-3.81.8-1.46,2.89-4.12,4.08-5.58,4.59-5.6,10.73-10.37,16.67-14.48,1.07-.41,4.1,1.34,5.44,1.67,4.79,1.17,9.5.46,13.76-1.94,4.43-2.49,6.33-6.27,8.51-10.69,8.56-1.83,17.52-2.05,26.11-.26l.35.24c1.95,4.86,5.49,9.51,10.33,11.78,5.28,2.48,9.81,2.02,15.13,0,.79-.3,1.1-1.02,2.1-.96,1.4.08,6.09,3.4,7.39,4.41Z"/>
        <path d="M70.4,98.94c.66.65-.39,1.31-.64,1.82-.21.42-.15.94-.4,1.36-.07.12-1.72,1.77-1.89,1.88-.48.31-1.56.69-2.15.76-6.54.79-15.4-.29-22.12-.32-2.66-.01-6,.7-8.74.33-1.13-.15-2.07-1.33-1.86-2.45.05-.24.47-.19.57-.38.81-1.61.86-2.77,3.05-3,1.5-.16,2.69.28,4.06.3,9.29.16,18.66.09,27.96,0,.51,0,2.08-.38,2.16-.3Z"/>
        <path d="M108.22,77.12c-.2-1.17.91-1.46,1.88-1.47l131.52.02.29.56c-.3.21-.49.92-.73,1.04s-.37-.16-.44-.16H108.22Z"/>
        <path d="M293.47,83.58c.17.66.98.77,1.27,1.22.25.39.16.81.3,1.1.12.25.44.22.48.38.03.14.05,2.7,0,2.84-.04.12-1.23,1.92-1.39,2.12-.62.74-2.59,2.05-3.08,2.84-1.08,1.72,1.47,2.22.32,3.42-.35.36-5.94-.38-6.99.14-2.94-.85,1.76-3.5,1.87-3.84.39-1.2-.9-1.87-1.13-2.36-.38-.81-.46-2.79-.29-3.64.04-.21.46-.21.48-.26.07-.2-.2-.5-.06-.8.04-.1,1.13-1.65,1.2-1.73,1.19-1.35,3.49-1.9,5.22-1.79.63.04,1.06.6,1.8.37Z"/>
        <path d="M91.64,77.12h-43.49c-.07,0-.24.3-.43.29l-.16-.88,1.16-.59,42.35.16.58,1.02Z"/>
        <path d="M26.18,89.05l5.84,11.18c-.87.36-.89,1.02-.89,1.91-.76.16-.45-.16-.61-.42-1.45-2.4-2.32-4.88-3.32-7.44-.59-1.5-.68-1.7-1.02-3.29-.03-.13-.99-.32-.58-1.8l.58-.14Z"/>
        <path d="M289.47,105.63c-.14.55-.69,1.75-1.31,1.75h-8.73l-.45-1c.23-.09.97-.74,1.03-.74h9.46Z"/>
        <path d="M91.93,124.54c-.04.5-1.22.52-1.58.54-.82.03-1.98-.19-2.78-.4-.33-.08-.94.02-.87-.43l5.23.29Z"/>
        <path d="M122.98,122.35c1.6.58,3.23,1.05,5.11,1.05l1.09.85c-2.84.45-5.73-.45-7.85-2.32.52.05,1.18.25,1.66.42Z"/>
        <path d="M100,111.68s-.43.01-.49.24c-.05.2.25.88-.03,1.26-2.01.27-3.44.56-5.2-.75-.32-.24-1.15-.88-1.59-1.04-1.17-.42-3.46.11-4.69.27l-.43-.91c.98-.64,1.57-2.78,2.62-3.21.25-.1.57.17.8.06.11-.05,1.12-1.33,1.75-1.61,1.96-.86,5.41-.07,6.48,1.8.18.32.87,3.71.79,3.89Z"/>
        <path d="M93.91,114.43c.14.17.05.55.06.79h2.99c1.02.99-.18,1.54-1.23,1.17l-.3,1.04-.84-.09-.17.46c-.27-.13-.58-.27-.89-.27-3.3,0-6.77.47-5.54-4.08l.32-.26c1.1.51,2.11-.15,3.1.03.16.03,2.4,1.08,2.49,1.19Z"/>
        <path d="M135.2,106c.47.29.37,1.14.47,1.31.09.15.66.19.76.53.15.55-.69.85.31,1.15-.45.83.32,2.77-.51,3.32-1.31.88-3.41.22-4.8-.37-1.16-.49-1.68-1.39-2.98-1.51-1.42-.13-2.55.36-3.93.42-.37-1.02.46-1.15.49-1.22.08-.17-.25-.51-.07-.81.11-.18,2.62-2.85,2.85-3,1.08-.68,4.14-1.26,5.33-.8.22.08,1.98.91,2.08.98Z"/>
        <path d="M128.59,112.61l-.3.58c.85-.31,3.21.35,2.91,1.46l.29-.58,1.46.29-.87.58c.32.25,2.29-.81,2.03.14-.44,1.61-2.36,1.15-2.58,1.36-.12.11.12.64-.22.84-.69.4-5.01.79-4.47-.89-.98.51-2.67-1.29-2.04-2.32l-.58.58.26-1.28,2.07-.17-.87-.58h2.91Z"/>
      </g>
      <rect class="cls-3" x="197.8" y="82.37" width="32.69" height="2.71"/>
      <rect class="cls-2" x="202.4" y="85.38" width="22.07" height="2.71"/>
      <rect class="cls-3" x="189.32" y="88.93" width="36.53" height="2.71"/>
      <ellipse class="cls-4" cx="218.64" cy="86.79" rx="3.07" ry="2.61" transform="translate(83.15 279.09) rotate(-76.48)"/>
    </g>
    <g>
      <path d="M158.5,120.72c0-2.38,1.83-4.08,4.28-4.08,1.36,0,2.5.5,3.25,1.4l-1.17,1.08c-.53-.61-1.2-.92-1.98-.92-1.48,0-2.53,1.04-2.53,2.53s1.05,2.53,2.53,2.53c.79,0,1.45-.32,1.98-.94l1.17,1.08c-.74.91-1.88,1.41-3.26,1.41-2.45,0-4.27-1.7-4.27-4.08Z"/>
      <path d="M172.29,122.97h-3.66l-.7,1.69h-1.87l3.52-7.89h1.8l3.53,7.89h-1.92l-.7-1.69ZM171.72,121.59l-1.25-3.02-1.25,3.02h2.5ZM170.83,116.13h-1.38l1.52-1.62h1.89l-2.04,1.62Z"/>
      <path d="M182.91,124.67v-4.74s-2.33,3.9-2.33,3.9h-.82l-2.31-3.8v4.63h-1.71v-7.89h1.51l2.95,4.91,2.91-4.91h1.5l.02,7.89h-1.71Z"/>
      <path d="M191.69,122.97h-3.66l-.7,1.69h-1.87l3.52-7.89h1.8l3.53,7.89h-1.92l-.7-1.69ZM191.12,121.59l-1.25-3.02-1.25,3.02h2.5Z"/>
      <path d="M200.15,124.67l-1.52-2.2h-1.68v2.2h-1.83v-7.89h3.42c2.11,0,3.43,1.09,3.43,2.86,0,1.18-.6,2.05-1.62,2.49l1.77,2.54h-1.96ZM198.44,118.26h-1.49v2.75h1.49c1.12,0,1.68-.52,1.68-1.38s-.56-1.38-1.68-1.38Z"/>
      <path d="M208.61,122.97h-3.66l-.7,1.69h-1.87l3.52-7.89h1.8l3.53,7.89h-1.92l-.7-1.69ZM208.03,121.59l-1.25-3.02-1.25,3.02h2.5Z"/>
      <path d="M215.23,116.77h3.59c2.58,0,4.35,1.56,4.35,3.95s-1.77,3.95-4.35,3.95h-3.59v-7.89ZM218.73,123.17c1.57,0,2.59-.94,2.59-2.45s-1.03-2.45-2.59-2.45h-1.67v4.89h1.67Z"/>
      <path d="M230.65,123.2v1.47h-6.11v-7.89h5.96v1.47h-4.15v1.71h3.66v1.42h-3.66v1.83h4.3Z"/>
      <path d="M237.12,118.24v2.09h3.65v1.47h-3.65v2.88h-1.83v-7.89h5.96v1.47h-4.14Z"/>
      <path d="M247.36,122.97h-3.66l-.7,1.69h-1.87l3.52-7.89h1.8l3.53,7.89h-1.92l-.7-1.69ZM246.79,121.59l-1.25-3.02-1.25,3.02h2.5Z"/>
      <path d="M258.04,122.51c0,1.36-1.08,2.15-3.16,2.15h-4.08v-7.89h3.86c1.97,0,2.99.82,2.99,2.05,0,.79-.41,1.4-1.05,1.74.88.28,1.44.96,1.44,1.95ZM252.61,118.15v1.86h1.82c.89,0,1.38-.32,1.38-.94s-.48-.92-1.38-.92h-1.82ZM256.2,122.32c0-.67-.51-.98-1.45-.98h-2.13v1.95h2.13c.95,0,1.45-.29,1.45-.97Z"/>
      <path d="M264.45,124.67l-1.52-2.2h-1.68v2.2h-1.83v-7.89h3.42c2.11,0,3.43,1.09,3.43,2.86,0,1.18-.6,2.05-1.62,2.49l1.77,2.54h-1.96ZM262.73,118.26h-1.49v2.75h1.49c1.12,0,1.68-.52,1.68-1.38s-.56-1.38-1.68-1.38Z"/>
      <path d="M267.7,116.77h1.83v7.89h-1.83v-7.89Z"/>
      <path d="M270.9,120.72c0-2.38,1.83-4.08,4.28-4.08,1.36,0,2.5.5,3.25,1.4l-1.17,1.08c-.53-.61-1.2-.92-1.98-.92-1.48,0-2.53,1.04-2.53,2.53s1.05,2.53,2.53,2.53c.79,0,1.45-.32,1.98-.94l1.17,1.08c-.74.91-1.88,1.41-3.26,1.41-2.45,0-4.27-1.7-4.27-4.08Z"/>
      <path d="M284.7,122.97h-3.66l-.7,1.69h-1.87l3.52-7.89h1.8l3.53,7.89h-1.92l-.7-1.69ZM284.13,121.59l-1.25-3.02-1.25,3.02h2.5Z"/>
      <path d="M295.38,116.77v7.89h-1.5l-3.94-4.79v4.79h-1.8v-7.89h1.51l3.92,4.79v-4.79h1.8Z"/>
      <path d="M298.88,118.26h-2.53v-1.49h6.88v1.49h-2.53v6.41h-1.83v-6.41Z"/>
      <path d="M310.32,123.2v1.47h-6.11v-7.89h5.96v1.47h-4.15v1.71h3.66v1.42h-3.66v1.83h4.3Z"/>
      <path d="M311.15,123.89l.62-1.38c.67.48,1.66.82,2.6.82,1.08,0,1.52-.36,1.52-.85,0-1.48-4.59-.46-4.59-3.39,0-1.34,1.08-2.46,3.33-2.46.99,0,2.01.24,2.74.7l-.56,1.39c-.73-.42-1.49-.62-2.19-.62-1.08,0-1.5.41-1.5.9,0,1.46,4.59.45,4.59,3.35,0,1.32-1.09,2.45-3.35,2.45-1.25,0-2.51-.37-3.21-.91Z"/>
      <path d="M327.35,122.97h-3.66l-.7,1.69h-1.87l3.52-7.89h1.8l3.53,7.89h-1.92l-.7-1.69ZM326.77,121.59l-1.25-3.02-1.25,3.02h2.5Z"/>
      <path d="M335.81,124.67l-1.52-2.2h-1.68v2.2h-1.83v-7.89h3.42c2.11,0,3.43,1.09,3.43,2.86,0,1.18-.6,2.05-1.62,2.49l1.77,2.54h-1.96ZM334.1,118.26h-1.49v2.75h1.49c1.12,0,1.68-.52,1.68-1.38s-.56-1.38-1.68-1.38Z"/>
      <path d="M344.4,120.59h1.67v3.2c-.87.65-2.06,1-3.19,1-2.48,0-4.31-1.7-4.31-4.08s1.83-4.08,4.34-4.08c1.39,0,2.54.47,3.3,1.36l-1.17,1.08c-.57-.61-1.24-.89-2.04-.89-1.53,0-2.58,1.03-2.58,2.53s1.05,2.53,2.56,2.53c.5,0,.96-.09,1.42-.34v-2.31Z"/>
      <path d="M353.87,123.2v1.47h-6.11v-7.89h5.96v1.47h-4.15v1.71h3.66v1.42h-3.66v1.83h4.3Z"/>
      <path d="M362.56,116.77v7.89h-1.5l-3.93-4.79v4.79h-1.8v-7.89h1.51l3.92,4.79v-4.79h1.8Z"/>
      <path d="M366.06,118.26h-2.53v-1.49h6.88v1.49h-2.53v6.41h-1.83v-6.41Z"/>
      <path d="M371.39,116.77h1.83v7.89h-1.83v-7.89Z"/>
      <path d="M382.32,116.77v7.89h-1.5l-3.93-4.79v4.79h-1.8v-7.89h1.51l3.92,4.79v-4.79h1.8Z"/>
      <path d="M383.69,120.72c0-2.35,1.83-4.08,4.32-4.08s4.32,1.72,4.32,4.08-1.84,4.08-4.32,4.08-4.32-1.74-4.32-4.08ZM390.48,120.72c0-1.5-1.06-2.53-2.47-2.53s-2.47,1.03-2.47,2.53,1.06,2.53,2.47,2.53,2.47-1.03,2.47-2.53Z"/>
      <path d="M393.08,123.89l.62-1.38c.67.48,1.66.82,2.6.82,1.08,0,1.52-.36,1.52-.85,0-1.48-4.59-.46-4.59-3.39,0-1.34,1.08-2.46,3.33-2.46.99,0,2.01.24,2.74.7l-.56,1.39c-.73-.42-1.49-.62-2.19-.62-1.08,0-1.5.41-1.5.9,0,1.46,4.59.45,4.59,3.35,0,1.32-1.09,2.45-3.35,2.45-1.25,0-2.51-.37-3.21-.91Z"/>
      <path d="M404.08,116.77h3.59c2.58,0,4.35,1.56,4.35,3.95s-1.77,3.95-4.35,3.95h-3.59v-7.89ZM407.58,123.17c1.57,0,2.59-.94,2.59-2.45s-1.03-2.45-2.59-2.45h-1.67v4.89h1.67Z"/>
      <path d="M419.5,123.2v1.47h-6.11v-7.89h5.96v1.47h-4.15v1.71h3.67v1.42h-3.67v1.83h4.3Z"/>
      <path d="M160.63,131.78h-2.53v-1.49h6.88v1.49h-2.53v6.41h-1.83v-6.41Z"/>
      <path d="M170.99,138.19l-1.52-2.2h-1.68v2.2h-1.83v-7.89h3.42c2.11,0,3.43,1.09,3.43,2.86,0,1.18-.6,2.05-1.62,2.49l1.77,2.54h-1.96ZM169.27,131.78h-1.49v2.75h1.49c1.12,0,1.68-.52,1.68-1.38s-.56-1.38-1.68-1.38Z"/>
      <path d="M179.44,136.5h-3.66l-.7,1.69h-1.87l3.52-7.89h1.8l3.53,7.89h-1.92l-.7-1.69ZM178.86,135.11l-1.25-3.02-1.25,3.02h2.5Z"/>
      <path d="M182.87,130.3h1.83v7.89h-1.83v-7.89Z"/>
      <path d="M186.57,130.3h1.83v6.41h3.96v1.49h-5.78v-7.89Z"/>
      <path d="M199.49,136.72v1.47h-6.11v-7.89h5.96v1.47h-4.15v1.71h3.66v1.42h-3.66v1.83h4.3Z"/>
      <path d="M205.97,138.19l-1.52-2.2h-1.68v2.2h-1.83v-7.89h3.42c2.11,0,3.43,1.09,3.43,2.86,0,1.18-.6,2.05-1.62,2.49l1.77,2.54h-1.96ZM204.26,131.78h-1.49v2.75h1.49c1.12,0,1.68-.52,1.68-1.38s-.56-1.38-1.68-1.38Z"/>
      <path d="M208.6,137.41l.62-1.38c.67.48,1.66.82,2.6.82,1.08,0,1.52-.36,1.52-.85,0-1.48-4.59-.46-4.59-3.39,0-1.34,1.08-2.46,3.33-2.46.99,0,2.01.24,2.74.7l-.56,1.39c-.73-.42-1.49-.62-2.19-.62-1.08,0-1.5.41-1.5.9,0,1.46,4.59.45,4.59,3.35,0,1.32-1.09,2.45-3.35,2.45-1.25,0-2.51-.37-3.21-.91Z"/>
      <path d="M218.27,137.17c0,.29-.04.51-.3,1.13l-.64,1.62h-1.12l.5-1.79c-.37-.15-.61-.5-.61-.96,0-.65.47-1.08,1.09-1.08s1.08.44,1.08,1.08Z"/>
      <path d="M222.28,134.24c0-2.38,1.83-4.08,4.28-4.08,1.36,0,2.5.5,3.25,1.4l-1.17,1.08c-.53-.61-1.2-.92-1.98-.92-1.48,0-2.53,1.04-2.53,2.53s1.05,2.53,2.53,2.53c.79,0,1.45-.32,1.98-.94l1.17,1.08c-.74.91-1.88,1.41-3.26,1.41-2.45,0-4.27-1.7-4.27-4.08Z"/>
      <path d="M236.08,136.5h-3.66l-.7,1.69h-1.87l3.52-7.89h1.8l3.53,7.89h-1.92l-.7-1.69ZM235.51,135.11l-1.25-3.02-1.25,3.02h2.5Z"/>
      <path d="M238.9,137.41l.62-1.38c.67.48,1.66.82,2.6.82,1.08,0,1.52-.36,1.52-.85,0-1.48-4.59-.46-4.59-3.39,0-1.34,1.08-2.46,3.33-2.46.99,0,2.01.24,2.74.7l-.56,1.39c-.73-.42-1.49-.62-2.19-.62-1.08,0-1.5.41-1.5.9,0,1.46,4.59.45,4.59,3.35,0,1.32-1.09,2.45-3.35,2.45-1.25,0-2.51-.37-3.21-.91Z"/>
      <path d="M246.71,130.3h1.83v7.89h-1.83v-7.89Z"/>
      <path d="M250.4,130.3h1.83v6.41h3.96v1.49h-5.78v-7.89Z"/>
      <path d="M257.21,130.3h1.83v6.41h3.96v1.49h-5.78v-7.89Z"/>
      <path d="M269.28,136.5h-3.66l-.7,1.69h-1.87l3.52-7.89h1.8l3.53,7.89h-1.92l-.7-1.69ZM268.71,135.11l-1.25-3.02-1.25,3.02h2.5Z"/>
      <path d="M272.1,137.41l.62-1.38c.67.48,1.66.82,2.6.82,1.08,0,1.52-.36,1.52-.85,0-1.48-4.59-.46-4.59-3.39,0-1.34,1.08-2.46,3.33-2.46.99,0,2.01.24,2.74.7l-.56,1.39c-.73-.42-1.49-.62-2.19-.62-1.08,0-1.5.41-1.5.9,0,1.46,4.59.45,4.59,3.35,0,1.32-1.09,2.45-3.35,2.45-1.25,0-2.51-.37-3.21-.91Z"/>
      <path d="M288.13,138.19l-1.52-2.2h-1.68v2.2h-1.83v-7.89h3.42c2.11,0,3.43,1.09,3.43,2.86,0,1.18-.6,2.05-1.62,2.49l1.77,2.54h-1.96ZM286.41,131.78h-1.49v2.75h1.49c1.12,0,1.68-.52,1.68-1.38s-.56-1.38-1.68-1.38Z"/>
      <path d="M290.88,134.24c0-2.35,1.83-4.08,4.32-4.08s4.32,1.72,4.32,4.08-1.84,4.08-4.32,4.08-4.32-1.74-4.32-4.08ZM297.67,134.24c0-1.5-1.06-2.53-2.47-2.53s-2.47,1.03-2.47,2.53,1.06,2.53,2.47,2.53,2.47-1.03,2.47-2.53Z"/>
      <path d="M300.89,130.3h3.59c2.58,0,4.35,1.56,4.35,3.95s-1.77,3.95-4.35,3.95h-3.59v-7.89ZM304.39,136.69c1.57,0,2.59-.94,2.59-2.45s-1.03-2.45-2.59-2.45h-1.67v4.89h1.67Z"/>
      <path d="M315.29,136.5h-3.66l-.7,1.69h-1.87l3.52-7.89h1.8l3.53,7.89h-1.92l-.7-1.69ZM314.71,135.11l-1.25-3.02-1.25,3.02h2.5Z"/>
      <path d="M325.96,130.3v7.89h-1.5l-3.94-4.79v4.79h-1.8v-7.89h1.51l3.92,4.79v-4.79h1.8Z"/>
      <path d="M329.46,131.78h-2.53v-1.49h6.88v1.49h-2.53v6.41h-1.83v-6.41Z"/>
      <path d="M340.9,136.72v1.47h-6.11v-7.89h5.96v1.47h-4.15v1.71h3.66v1.42h-3.66v1.83h4.3Z"/>
      <path d="M341.73,137.41l.62-1.38c.67.48,1.66.82,2.6.82,1.08,0,1.52-.36,1.52-.85,0-1.48-4.59-.46-4.59-3.39,0-1.34,1.08-2.46,3.33-2.46.99,0,2.01.24,2.74.7l-.56,1.39c-.73-.42-1.49-.62-2.19-.62-1.08,0-1.5.41-1.5.9,0,1.46,4.59.45,4.59,3.35,0,1.32-1.09,2.45-3.35,2.45-1.25,0-2.51-.37-3.21-.91Z"/>
      <path d="M356.52,135.39v2.8h-1.83v-2.82l-3.06-5.07h1.94l2.11,3.51,2.11-3.51h1.79l-3.07,5.1Z"/>
      <path d="M368.74,136.5h-3.67l-.7,1.69h-1.87l3.52-7.89h1.8l3.53,7.89h-1.92l-.7-1.69ZM368.17,135.11l-1.25-3.02-1.25,3.02h2.5Z"/>
      <path d="M374,131.76v2.09h3.65v1.47h-3.65v2.88h-1.83v-7.89h5.96v1.47h-4.14Z"/>
      <path d="M379.38,130.3h1.83v7.89h-1.83v-7.89Z"/>
      <path d="M390.31,130.3v7.89h-1.5l-3.93-4.79v4.79h-1.8v-7.89h1.51l3.92,4.79v-4.79h1.8Z"/>
      <path d="M398.29,136.72v1.47h-6.11v-7.89h5.96v1.47h-4.15v1.71h3.67v1.42h-3.67v1.83h4.3Z"/>
      <path d="M399.12,137.41l.62-1.38c.67.48,1.66.82,2.6.82,1.08,0,1.52-.36,1.52-.85,0-1.48-4.59-.46-4.59-3.39,0-1.34,1.08-2.46,3.33-2.46.99,0,2.01.24,2.74.7l-.56,1.39c-.73-.42-1.49-.62-2.19-.62-1.08,0-1.5.41-1.5.9,0,1.46,4.59.45,4.59,3.35,0,1.32-1.09,2.45-3.35,2.45-1.25,0-2.51-.37-3.21-.91Z"/>
    </g>
  </g>
</svg>